<svg width="96" height="96" xmlns="http://www.w3.org/2000/svg" xmlns:xlink="http://www.w3.org/1999/xlink" xml:space="preserve" overflow="hidden"><g transform="translate(-592 -312)"><path d="M634.315 379.4C635.229 378.99 636.15 378.593 637.071 378.2L636.082 377.869C624.085 373.827 611.688 371.088 599.105 369.7L597.005 369.488 597.005 371.5 598.895 371.691C610.937 373.023 622.808 375.607 634.315 379.4Z"/><path d="M615.8 364.036 617.8 364.453C628.19 366.657 638.355 369.81 648.168 373.873 649.109 373.543 650.052 373.22 650.998 372.905 640.436 368.372 629.454 364.887 618.21 362.5L616.2 362.077 616 362.04 616 355.334C617.868 355.316 619.674 354.66 621.119 353.477 623.363 351.321 622.983 347.477 622.966 347.316L622.883 346.543 622.114 346.432C620.922 346.293 619.715 346.366 618.548 346.648 618.689 346.169 618.78 345.677 618.819 345.179 618.819 342.116 615.844 339.379 615.719 339.26L615.046 338.648 614.373 339.26C614.246 339.375 611.273 342.116 611.273 345.251 611.308 345.719 611.388 346.183 611.51 346.636 610.329 346.348 609.107 346.275 607.9 346.42L607.132 346.532 607.05 347.303C607.033 347.466 606.65 351.308 608.895 353.464 610.336 354.644 612.137 355.296 614 355.314L614 361.667C609.084 360.751 604.084 360.026 599.087 359.534L597.005 359.35 597.005 361.358 598.905 361.525C604.572 362.084 610.259 362.929 615.8 364.036ZM621 348.361C621.047 349.7 620.596 351.009 619.736 352.036 618.782 352.793 617.616 353.235 616.4 353.3 616.294 352.447 616.309 351.582 616.446 350.733 616.628 350.262 616.913 349.837 617.279 349.489 618.306 348.687 619.59 348.287 620.891 348.364ZM615.05 341.446C616.018 342.442 616.641 343.723 616.827 345.1 616.714 346.32 616.184 347.464 615.327 348.34 615.108 348.379 614.882 348.349 614.681 348.254 613.84 347.442 613.336 346.342 613.271 345.175 613.445 343.772 614.069 342.464 615.05 341.446ZM613.694 353.285C612.454 353.231 611.262 352.789 610.286 352.022 609.427 350.995 608.977 349.686 609.023 348.348 610.351 348.251 611.669 348.642 612.73 349.448 613.102 349.834 613.399 350.285 613.606 350.78 613.827 351.597 613.857 352.454 613.694 353.285Z"/><path d="M620.251 385.387 621.451 385.676 621.62 385.725C622.455 385.267 623.294 384.816 624.136 384.372L621.964 383.744 620.719 383.444C613.597 381.747 606.377 380.493 599.1 379.69L597.01 379.5 597.01 381.508 598.9 381.679C606.087 382.474 613.217 383.712 620.251 385.387Z"/><path d="M607.332 392.48C607.966 392.571 608.909 392.68 609.832 392.789 610.723 392.207 611.619 391.634 612.52 391.069 611.501 390.962 608.879 390.682 607.62 390.5L606.355 390.322C604.185 390.016 601.883 389.747 599.105 389.474L597.01 389.285 597.01 391.293 598.918 391.465C601.659 391.735 603.934 392.001 606.076 392.302Z"/><path d="M638.653 318.856 640.653 318.856 640.653 323.856 638.653 323.856Z"/><path d="M638.653 340 640.653 340 640.653 345 638.653 345Z"/><path d="M647.725 330.928 652.725 330.928 652.725 332.928 647.725 332.928Z"/><path d="M626.581 330.928 631.581 330.928 631.581 332.928 626.581 332.928Z"/><path d="M644.654 325.512 648.19 321.977 649.604 323.391 646.068 326.927Z"/><path d="M629.702 340.465 633.238 336.929 634.652 338.343 631.116 341.879Z"/><path d="M644.654 338.342 646.068 336.928 649.604 340.463 648.19 341.878Z"/><path d="M629.702 323.391 631.117 321.977 634.652 325.512 633.238 326.926Z"/><path d="M639.653 337.984C642.967 337.984 645.653 335.298 645.653 331.984 645.653 328.67 642.967 325.984 639.653 325.984 636.339 325.984 633.653 328.67 633.653 331.984 633.653 335.298 636.339 337.984 639.653 337.984ZM639.653 327.984C641.862 327.984 643.653 329.775 643.653 331.984 643.653 334.193 641.862 335.984 639.653 335.984 637.444 335.984 635.653 334.193 635.653 331.984 635.654 329.774 637.443 327.983 639.653 327.98Z"/><path d="M624.233 400 628.465 400 630.179 399.081C646.68 390.22 664.527 384.139 683.005 381.081L683.005 379.056C664.196 382.132 646.026 388.302 629.234 397.318Z"/><path d="M647.517 400 653.3 400 661.135 397.114C668.293 394.76 675.598 392.876 683.002 391.475L683.002 389.437C675.373 390.865 667.847 392.799 660.475 395.226Z"/><path d="M671.8 370.4 670 370.778 670 365.974C671.868 365.955 673.673 365.3 675.119 364.117 677.363 361.961 676.983 358.117 676.966 357.956L676.883 357.183 676.114 357.072C674.922 356.933 673.715 357.006 672.548 357.288 672.689 356.809 672.78 356.317 672.819 355.819 672.819 352.756 669.844 350.019 669.719 349.9L669.046 349.288 668.373 349.9C668.246 350.015 665.273 352.756 665.273 355.891 665.308 356.359 665.388 356.823 665.51 357.276 664.329 356.988 663.107 356.915 661.9 357.06L661.132 357.172 661.05 357.943C661.033 358.106 660.65 361.948 662.895 364.104 664.335 365.284 666.134 365.936 667.995 365.954L667.995 371.242C645.482 376.424 624.212 385.997 605.405 399.414L604.594 400 608.08 400C626.799 386.928 647.914 377.678 670.214 372.779L672.214 372.359C675.914 371.589 679.53 370.959 683.006 370.459L683.006 368.439C679.4 368.948 675.646 369.6 671.8 370.4ZM675 359C675.047 360.339 674.596 361.648 673.736 362.675 672.782 363.43 671.616 363.871 670.401 363.935 670.295 363.082 670.31 362.217 670.447 361.368 670.629 360.897 670.913 360.472 671.28 360.124 672.307 359.322 673.592 358.922 674.893 359ZM669.05 352.086C670.019 353.083 670.642 354.365 670.827 355.743 670.714 356.963 670.184 358.107 669.327 358.983 669.108 359.022 668.882 358.992 668.681 358.897 667.84 358.085 667.336 356.985 667.271 355.818 667.444 354.414 668.068 353.104 669.05 352.086ZM667.694 363.925C666.454 363.871 665.262 363.429 664.286 362.662 663.427 361.634 662.977 360.326 663.023 358.988 664.352 358.887 665.671 359.278 666.73 360.088 667.102 360.474 667.399 360.926 667.606 361.42 667.827 362.237 667.857 363.094 667.694 363.925Z"/></g></svg>